<svg xmlns="http://www.w3.org/2000/svg" version="1.1" xmlns:xlink="http://www.w3.org/1999/xlink" xmlns:svgjs="http://svgjs.com/svgjs" width="1920" height="1080" preserveAspectRatio="none" viewBox="0 0 1920 1080"><g mask="url(&quot;#SvgjsMask1125&quot;)" fill="none"><rect width="1920" height="1080" x="0" y="0" fill="rgba(0, 18, 25, 1)"></rect><path d="M1570 645L991 66" stroke-width="10" stroke="url(#SvgjsLinearGradient1126)" stroke-linecap="round" class="BottomRight"></path><path d="M343 405L699 761" stroke-width="8" stroke="url(#SvgjsLinearGradient1126)" stroke-linecap="round" class="BottomRight"></path><path d="M610 993L-1 382" stroke-width="10" stroke="url(#SvgjsLinearGradient1127)" stroke-linecap="round" class="TopLeft"></path><path d="M482 640L966 1124" stroke-width="6" stroke="url(#SvgjsLinearGradient1128)" stroke-linecap="round" class="BottomRight"></path><path d="M496 972L999 1475" stroke-width="6" stroke="url(#SvgjsLinearGradient1127)" stroke-linecap="round" class="TopLeft"></path><path d="M829 816L1387 1374" stroke-width="6" stroke="url(#SvgjsLinearGradient1128)" stroke-linecap="round" class="BottomRight"></path><path d="M131 625L896 1390" stroke-width="10" stroke="url(#SvgjsLinearGradient1129)" stroke-linecap="round" class="TopLeft"></path><path d="M1845 780L2330 1265" stroke-width="8" stroke="url(#SvgjsLinearGradient1129)" stroke-linecap="round" class="TopLeft"></path><path d="M1676 166L1216 -294" stroke-width="8" stroke="url(#SvgjsLinearGradient1128)" stroke-linecap="round" class="BottomRight"></path><path d="M1215 89L1919 793" stroke-width="10" stroke="url(#SvgjsLinearGradient1129)" stroke-linecap="round" class="TopLeft"></path><path d="M1327 789L2135 1597" stroke-width="8" stroke="url(#SvgjsLinearGradient1129)" stroke-linecap="round" class="TopLeft"></path><path d="M214 80L-557 -691" stroke-width="8" stroke="url(#SvgjsLinearGradient1127)" stroke-linecap="round" class="TopLeft"></path><path d="M1057 381L611 -65" stroke-width="10" stroke="url(#SvgjsLinearGradient1128)" stroke-linecap="round" class="BottomRight"></path><path d="M1282 242L981 -59" stroke-width="10" stroke="url(#SvgjsLinearGradient1126)" stroke-linecap="round" class="BottomRight"></path><path d="M661 741L1260 1340" stroke-width="10" stroke="url(#SvgjsLinearGradient1128)" stroke-linecap="round" class="BottomRight"></path><path d="M150 668L742 1260" stroke-width="10" stroke="url(#SvgjsLinearGradient1127)" stroke-linecap="round" class="TopLeft"></path><path d="M1328 999L930 601" stroke-width="10" stroke="url(#SvgjsLinearGradient1127)" stroke-linecap="round" class="TopLeft"></path><path d="M1094 29L1873 808" stroke-width="6" stroke="url(#SvgjsLinearGradient1127)" stroke-linecap="round" class="TopLeft"></path><path d="M1867 370L2625 1128" stroke-width="8" stroke="url(#SvgjsLinearGradient1128)" stroke-linecap="round" class="BottomRight"></path><path d="M1787 74L1399 -314" stroke-width="6" stroke="url(#SvgjsLinearGradient1129)" stroke-linecap="round" class="TopLeft"></path><path d="M429 406L7 -16" stroke-width="8" stroke="url(#SvgjsLinearGradient1126)" stroke-linecap="round" class="BottomRight"></path><path d="M1477 946L672 141" stroke-width="10" stroke="url(#SvgjsLinearGradient1129)" stroke-linecap="round" class="TopLeft"></path><path d="M1239 4L800 -435" stroke-width="8" stroke="url(#SvgjsLinearGradient1128)" stroke-linecap="round" class="BottomRight"></path><path d="M1852 276L2218 642" stroke-width="8" stroke="url(#SvgjsLinearGradient1127)" stroke-linecap="round" class="TopLeft"></path><path d="M539 241L1201 903" stroke-width="6" stroke="url(#SvgjsLinearGradient1126)" stroke-linecap="round" class="BottomRight"></path><path d="M1711 504L2213 1006" stroke-width="8" stroke="url(#SvgjsLinearGradient1129)" stroke-linecap="round" class="TopLeft"></path><path d="M711 292L123 -296" stroke-width="8" stroke="url(#SvgjsLinearGradient1127)" stroke-linecap="round" class="TopLeft"></path><path d="M1001 190L488 -323" stroke-width="10" stroke="url(#SvgjsLinearGradient1127)" stroke-linecap="round" class="TopLeft"></path><path d="M448 1022L0 574" stroke-width="6" stroke="url(#SvgjsLinearGradient1129)" stroke-linecap="round" class="TopLeft"></path><path d="M1188 1003L1537 1352" stroke-width="6" stroke="url(#SvgjsLinearGradient1128)" stroke-linecap="round" class="BottomRight"></path><path d="M544 285L77 -182" stroke-width="6" stroke="url(#SvgjsLinearGradient1129)" stroke-linecap="round" class="TopLeft"></path><path d="M817 895L397 475" stroke-width="10" stroke="url(#SvgjsLinearGradient1129)" stroke-linecap="round" class="TopLeft"></path><path d="M756 916L1105 1265" stroke-width="10" stroke="url(#SvgjsLinearGradient1126)" stroke-linecap="round" class="BottomRight"></path><path d="M1498 1072L813 387" stroke-width="6" stroke="url(#SvgjsLinearGradient1127)" stroke-linecap="round" class="TopLeft"></path><path d="M1155 74L1963 882" stroke-width="8" stroke="url(#SvgjsLinearGradient1128)" stroke-linecap="round" class="BottomRight"></path><path d="M461 595L990 1124" stroke-width="10" stroke="url(#SvgjsLinearGradient1129)" stroke-linecap="round" class="TopLeft"></path><path d="M845 264L1573 992" stroke-width="8" stroke="url(#SvgjsLinearGradient1126)" stroke-linecap="round" class="BottomRight"></path><path d="M910 781L1181 1052" stroke-width="6" stroke="url(#SvgjsLinearGradient1129)" stroke-linecap="round" class="TopLeft"></path><path d="M1875 617L2394 1136" stroke-width="6" stroke="url(#SvgjsLinearGradient1126)" stroke-linecap="round" class="BottomRight"></path><path d="M249 310L1014 1075" stroke-width="8" stroke="url(#SvgjsLinearGradient1126)" stroke-linecap="round" class="BottomRight"></path><path d="M1849 626L2454 1231" stroke-width="10" stroke="url(#SvgjsLinearGradient1127)" stroke-linecap="round" class="TopLeft"></path><path d="M1478 21L884 -573" stroke-width="6" stroke="url(#SvgjsLinearGradient1129)" stroke-linecap="round" class="TopLeft"></path><path d="M258 561L1045 1348" stroke-width="10" stroke="url(#SvgjsLinearGradient1129)" stroke-linecap="round" class="TopLeft"></path><path d="M1631 138L1000 -493" stroke-width="6" stroke="url(#SvgjsLinearGradient1127)" stroke-linecap="round" class="TopLeft"></path><path d="M345 800L765 1220" stroke-width="6" stroke="url(#SvgjsLinearGradient1126)" stroke-linecap="round" class="BottomRight"></path><path d="M1001 725L399 123" stroke-width="6" stroke="url(#SvgjsLinearGradient1126)" stroke-linecap="round" class="BottomRight"></path><path d="M1758 623L2409 1274" stroke-width="6" stroke="url(#SvgjsLinearGradient1127)" stroke-linecap="round" class="TopLeft"></path><path d="M1474 760L1828 1114" stroke-width="10" stroke="url(#SvgjsLinearGradient1126)" stroke-linecap="round" class="BottomRight"></path><path d="M1431 127L1731 427" stroke-width="8" stroke="url(#SvgjsLinearGradient1128)" stroke-linecap="round" class="BottomRight"></path><path d="M1538 321L1968 751" stroke-width="6" stroke="url(#SvgjsLinearGradient1129)" stroke-linecap="round" class="TopLeft"></path><path d="M1762 176L2266 680" stroke-width="8" stroke="url(#SvgjsLinearGradient1129)" stroke-linecap="round" class="TopLeft"></path><path d="M1610 329L2401 1120" stroke-width="10" stroke="url(#SvgjsLinearGradient1129)" stroke-linecap="round" class="TopLeft"></path><path d="M802 264L1248 710" stroke-width="10" stroke="url(#SvgjsLinearGradient1128)" stroke-linecap="round" class="BottomRight"></path><path d="M1713 499L1266 52" stroke-width="10" stroke="url(#SvgjsLinearGradient1128)" stroke-linecap="round" class="BottomRight"></path><path d="M808 802L84 78" stroke-width="6" stroke="url(#SvgjsLinearGradient1126)" stroke-linecap="round" class="BottomRight"></path><path d="M917 866L1409 1358" stroke-width="10" stroke="url(#SvgjsLinearGradient1126)" stroke-linecap="round" class="BottomRight"></path></g><defs><mask id="SvgjsMask1125"><rect width="1920" height="1080" fill="#ffffff"></rect></mask><linearGradient x1="0%" y1="0%" x2="100%" y2="100%" id="SvgjsLinearGradient1126"><stop stop-color="rgba(0, 95, 115, 0)" offset="0"></stop><stop stop-color="rgba(0, 95, 115, 1)" offset="1"></stop></linearGradient><linearGradient x1="100%" y1="100%" x2="0%" y2="0%" id="SvgjsLinearGradient1127"><stop stop-color="rgba(0, 95, 115, 0)" offset="0"></stop><stop stop-color="rgba(0, 95, 115, 1)" offset="1"></stop></linearGradient><linearGradient x1="0%" y1="0%" x2="100%" y2="100%" id="SvgjsLinearGradient1128"><stop stop-color="rgba(155, 34, 38, 0)" offset="0"></stop><stop stop-color="rgba(155, 34, 38, 1)" offset="1"></stop></linearGradient><linearGradient x1="100%" y1="100%" x2="0%" y2="0%" id="SvgjsLinearGradient1129"><stop stop-color="rgba(155, 34, 38, 0)" offset="0"></stop><stop stop-color="rgba(155, 34, 38, 1)" offset="1"></stop></linearGradient></defs></svg>