<svg xmlns="http://www.w3.org/2000/svg" version="1.1" xmlns:xlink="http://www.w3.org/1999/xlink" xmlns:svgjs="http://svgjs.com/svgjs" width="1440" height="560" preserveAspectRatio="none" viewBox="0 0 1440 560"><g clip-path="url(&quot;#SvgjsClipPath1141&quot;)" fill="none"><rect width="1440" height="560" x="0" y="0" fill="url(#SvgjsLinearGradient1142)"></rect><circle r="93.335" cx="-59.18" cy="56.55" stroke="#9d0208" stroke-opacity="1" stroke-width="2"></circle><circle r="93.335" cx="366.75" cy="325.21" stroke="#9d0208" stroke-opacity="1" stroke-width="2"></circle><circle r="93.335" cx="726.23" cy="671.3" stroke="#9d0208" stroke-opacity="1" stroke-width="2"></circle><circle r="57.28" cx="189.1" cy="524.19" stroke="#9d0208" stroke-opacity="1" stroke-width="2"></circle><circle r="172.655" cx="1264.72" cy="408.13" stroke="#9d0208" stroke-opacity="1" stroke-width="2"></circle><circle r="79.36" cx="1263.46" cy="210.51" stroke="#9d0208" stroke-opacity="1" stroke-width="2"></circle><circle r="77.08" cx="914.03" cy="427.19" stroke="#9d0208" stroke-opacity="1" stroke-width="2"></circle><circle r="153.89" cx="114.55" cy="472.5" stroke="#9d0208" stroke-opacity="1" stroke-width="2"></circle><circle r="119.17" cx="1401.39" cy="83.67" stroke="#9d0208" stroke-opacity="1" stroke-width="2"></circle><circle r="105.705" cx="940.28" cy="539.53" stroke="#9d0208" stroke-opacity="1" stroke-width="2"></circle><circle r="184.485" cx="629.82" cy="282.94" stroke="#9d0208" stroke-opacity="1" stroke-width="2"></circle><circle r="103.34" cx="976.86" cy="165.44" stroke="#9d0208" stroke-opacity="1" stroke-width="2"></circle><circle r="147.295" cx="1048.97" cy="174.21" stroke="#9d0208" stroke-opacity="1" stroke-width="2"></circle><circle r="98.855" cx="1126.02" cy="350.61" stroke="#9d0208" stroke-opacity="1" stroke-width="2"></circle><circle r="104.065" cx="830.37" cy="195.66" stroke="#9d0208" stroke-opacity="1" stroke-width="2"></circle><circle r="118.035" cx="583.27" cy="197.2" stroke="#9d0208" stroke-opacity="1" stroke-width="2"></circle><circle r="167.66" cx="901.39" cy="132.7" stroke="#9d0208" stroke-opacity="1" stroke-width="2"></circle><circle r="86.37" cx="1308.87" cy="250.44" stroke="#9d0208" stroke-opacity="1" stroke-width="2"></circle><circle r="157.47" cx="1276.7" cy="87.7" stroke="#9d0208" stroke-opacity="1" stroke-width="2"></circle><circle r="57.815" cx="13.24" cy="188.94" stroke="#9d0208" stroke-opacity="1" stroke-width="2"></circle><circle r="51.765" cx="318.3" cy="465.55" stroke="#9d0208" stroke-opacity="1" stroke-width="2"></circle><circle r="57.93" cx="1190.57" cy="504.29" stroke="#9d0208" stroke-opacity="1" stroke-width="2"></circle><circle r="181.58" cx="289.44" cy="217.65" stroke="#9d0208" stroke-opacity="1" stroke-width="2"></circle><circle r="117.66" cx="415.99" cy="396.71" stroke="#9d0208" stroke-opacity="1" stroke-width="2"></circle><circle r="171.095" cx="1329.84" cy="41.83" stroke="#9d0208" stroke-opacity="1" stroke-width="2"></circle><circle r="111.345" cx="340.74" cy="75.79" stroke="#9d0208" stroke-opacity="1" stroke-width="2"></circle><circle r="168.94" cx="992.37" cy="514.41" stroke="#9d0208" stroke-opacity="1" stroke-width="2"></circle><circle r="126.39" cx="1022.11" cy="357.46" stroke="#9d0208" stroke-opacity="1" stroke-width="2"></circle><circle r="65.03" cx="689.07" cy="126.95" stroke="#9d0208" stroke-opacity="1" stroke-width="2"></circle><circle r="101.195" cx="499.35" cy="494" stroke="#9d0208" stroke-opacity="1" stroke-width="2"></circle><circle r="156.7" cx="367.44" cy="333.12" stroke="#9d0208" stroke-opacity="1" stroke-width="2"></circle><circle r="76.72" cx="514.75" cy="408.46" stroke="#9d0208" stroke-opacity="1" stroke-width="2"></circle><circle r="158.385" cx="490.19" cy="138.73" stroke="#9d0208" stroke-opacity="1" stroke-width="2"></circle><circle r="140.47" cx="212.65" cy="195.3" stroke="#9d0208" stroke-opacity="1" stroke-width="2"></circle><circle r="155.34" cx="994.77" cy="231.21" stroke="#9d0208" stroke-opacity="1" stroke-width="2"></circle><circle r="182.815" cx="1067.38" cy="553.27" stroke="#9d0208" stroke-opacity="1" stroke-width="2"></circle><circle r="84.155" cx="1087.4" cy="331.87" stroke="#9d0208" stroke-opacity="1" stroke-width="2"></circle><circle r="83.39" cx="359.45" cy="546.76" stroke="#9d0208" stroke-opacity="1" stroke-width="2"></circle><circle r="103.625" cx="1190.58" cy="5.54" stroke="#9d0208" stroke-opacity="1" stroke-width="2"></circle><circle r="97.035" cx="382.75" cy="394.47" stroke="#9d0208" stroke-opacity="1" stroke-width="2"></circle><circle r="83.25" cx="118.28" cy="507.61" stroke="#9d0208" stroke-opacity="1" stroke-width="2"></circle><circle r="135.305" cx="420.54" cy="277.14" stroke="#9d0208" stroke-opacity="1" stroke-width="2"></circle><circle r="133.585" cx="1419.91" cy="130.03" stroke="#9d0208" stroke-opacity="1" stroke-width="2"></circle><circle r="113.655" cx="839.54" cy="381.76" stroke="#9d0208" stroke-opacity="1" stroke-width="2"></circle><circle r="125.255" cx="955.38" cy="137.33" stroke="#9d0208" stroke-opacity="1" stroke-width="2"></circle><circle r="91.435" cx="1439.5" cy="62.6" stroke="#9d0208" stroke-opacity="1" stroke-width="2"></circle><circle r="94.81" cx="83.5" cy="298.81" stroke="#9d0208" stroke-opacity="1" stroke-width="2"></circle><circle r="103.48" cx="213.85" cy="134.31" stroke="#9d0208" stroke-opacity="1" stroke-width="2"></circle><circle r="57.47" cx="961.36" cy="246.82" stroke="#9d0208" stroke-opacity="1" stroke-width="2"></circle><circle r="83.26" cx="1247.15" cy="194.1" stroke="#9d0208" stroke-opacity="1" stroke-width="2"></circle><circle r="94.905" cx="1095" cy="360.93" stroke="#9d0208" stroke-opacity="1" stroke-width="2"></circle><circle r="184.22" cx="1439.64" cy="106.54" stroke="#9d0208" stroke-opacity="1" stroke-width="2"></circle><circle r="183.265" cx="414.6" cy="274.98" stroke="#9d0208" stroke-opacity="1" stroke-width="2"></circle><circle r="162.035" cx="1165.94" cy="518.39" stroke="#9d0208" stroke-opacity="1" stroke-width="2"></circle><circle r="116.94" cx="254.78" cy="516.59" stroke="#9d0208" stroke-opacity="1" stroke-width="2"></circle><circle r="96.1" cx="1226.08" cy="95.25" stroke="#9d0208" stroke-opacity="1" stroke-width="2"></circle><circle r="118.14" cx="1404.23" cy="451.66" stroke="#9d0208" stroke-opacity="1" stroke-width="2"></circle><circle r="60.32" cx="860.62" cy="280.62" stroke="#9d0208" stroke-opacity="1" stroke-width="2"></circle><circle r="65.94" cx="761.73" cy="261.68" stroke="#9d0208" stroke-opacity="1" stroke-width="2"></circle><circle r="98.38" cx="296.3" cy="504.05" stroke="#9d0208" stroke-opacity="1" stroke-width="2"></circle><circle r="171.765" cx="756.92" cy="511.47" stroke="#9d0208" stroke-opacity="1" stroke-width="2"></circle><circle r="129.88" cx="356.05" cy="323.07" stroke="#9d0208" stroke-opacity="1" stroke-width="2"></circle><circle r="133.06" cx="1136.65" cy="170.68" stroke="#9d0208" stroke-opacity="1" stroke-width="2"></circle><circle r="73.3" cx="95.98" cy="403.34" stroke="#9d0208" stroke-opacity="1" stroke-width="2"></circle><circle r="172.285" cx="650.02" cy="72.92" stroke="#9d0208" stroke-opacity="1" stroke-width="2"></circle><circle r="125.045" cx="399.73" cy="145.9" stroke="#9d0208" stroke-opacity="1" stroke-width="2"></circle><circle r="122.92" cx="599.25" cy="155.99" stroke="#9d0208" stroke-opacity="1" stroke-width="2"></circle><circle r="157.56" cx="698.35" cy="440.99" stroke="#9d0208" stroke-opacity="1" stroke-width="2"></circle><circle r="107.47" cx="335.66" cy="415.73" stroke="#9d0208" stroke-opacity="1" stroke-width="2"></circle><circle r="116.265" cx="1094.99" cy="95.82" stroke="#9d0208" stroke-opacity="1" stroke-width="2"></circle><circle r="168.325" cx="379.54" cy="34.54" stroke="#9d0208" stroke-opacity="1" stroke-width="2"></circle><circle r="110.93" cx="205.16" cy="230.97" stroke="#9d0208" stroke-opacity="1" stroke-width="2"></circle><circle r="169.69" cx="276.35" cy="515.61" stroke="#9d0208" stroke-opacity="1" stroke-width="2"></circle><circle r="129.84" cx="1276.16" cy="477.03" stroke="#9d0208" stroke-opacity="1" stroke-width="2"></circle><circle r="71.44" cx="275.67" cy="278.39" stroke="#9d0208" stroke-opacity="1" stroke-width="2"></circle><circle r="92.375" cx="1430.08" cy="177.47" stroke="#9d0208" stroke-opacity="1" stroke-width="2"></circle><circle r="162.28" cx="826.88" cy="516.8" stroke="#9d0208" stroke-opacity="1" stroke-width="2"></circle><circle r="135.28" cx="1156.8" cy="264.51" stroke="#9d0208" stroke-opacity="1" stroke-width="2"></circle><circle r="81.53" cx="807.03" cy="164.44" stroke="#9d0208" stroke-opacity="1" stroke-width="2"></circle><circle r="115.285" cx="216.9" cy="540.32" stroke="#9d0208" stroke-opacity="1" stroke-width="2"></circle><circle r="130.07" cx="191.88" cy="346.19" stroke="#9d0208" stroke-opacity="1" stroke-width="2"></circle><circle r="62.735" cx="363.6" cy="272.77" stroke="#9d0208" stroke-opacity="1" stroke-width="2"></circle><circle r="102.7" cx="829.32" cy="226.4" stroke="#9d0208" stroke-opacity="1" stroke-width="2"></circle><circle r="67.845" cx="440.22" cy="39.19" stroke="#9d0208" stroke-opacity="1" stroke-width="2"></circle><circle r="168.905" cx="292.22" cy="247.04" stroke="#9d0208" stroke-opacity="1" stroke-width="2"></circle><circle r="81.815" cx="183.53" cy="50.56" stroke="#9d0208" stroke-opacity="1" stroke-width="2"></circle><circle r="54.305" cx="1106.23" cy="232.36" stroke="#9d0208" stroke-opacity="1" stroke-width="2"></circle><circle r="146.655" cx="813.48" cy="132.55" stroke="#9d0208" stroke-opacity="1" stroke-width="2"></circle><circle r="157.035" cx="187.74" cy="513" stroke="#9d0208" stroke-opacity="1" stroke-width="2"></circle><circle r="182.605" cx="753.34" cy="440.42" stroke="#9d0208" stroke-opacity="1" stroke-width="2"></circle></g><defs><clipPath id="SvgjsClipPath1141"><rect width="1440" height="560" x="0" y="0"></rect></clipPath><linearGradient x1="15.28%" y1="-39.29%" x2="84.72%" y2="139.29%" gradientUnits="userSpaceOnUse" id="SvgjsLinearGradient1142"><stop stop-color="rgba(157, 2, 8, 1)" offset="0"></stop><stop stop-color="rgba(232, 93, 4, 1)" offset="1"></stop></linearGradient></defs></svg>