<svg xmlns="http://www.w3.org/2000/svg" version="1.1" xmlns:xlink="http://www.w3.org/1999/xlink" xmlns:svgjs="http://svgjs.com/svgjs" width="1440" height="560" preserveAspectRatio="none" viewBox="0 0 1440 560"><g mask="url(&quot;#SvgjsMask1642&quot;)" fill="none"><rect width="1440" height="560" x="0" y="0" fill="url(#SvgjsRadialGradient1643)"></rect><path d="M1440 0L1315.44 0L1440 75.66z" fill="rgba(255, 255, 255, .1)"></path><path d="M1315.44 0L1440 75.66L1440 208.07L969.57 0z" fill="rgba(255, 255, 255, .075)"></path><path d="M969.5699999999999 0L1440 208.07L1440 225.34L717.92 0z" fill="rgba(255, 255, 255, .05)"></path><path d="M717.92 0L1440 225.34L1440 377.69L230.62999999999994 0z" fill="rgba(255, 255, 255, .025)"></path><path d="M0 560L394.15 560L0 317.07z" fill="rgba(0, 0, 0, .1)"></path><path d="M0 317.07L394.15 560L534.22 560L0 249.45999999999998z" fill="rgba(0, 0, 0, .075)"></path><path d="M0 249.45999999999998L534.22 560L587.38 560L0 214.18999999999997z" fill="rgba(0, 0, 0, .05)"></path><path d="M0 214.19L587.38 560L1050.48 560L0 183.88z" fill="rgba(0, 0, 0, .025)"></path></g><defs><mask id="SvgjsMask1642"><rect width="1440" height="560" fill="#ffffff"></rect></mask><radialGradient cx="0%" cy="50%" r="1466.97" gradientUnits="userSpaceOnUse" id="SvgjsRadialGradient1643"><stop stop-color="rgba(106, 4, 15, 1)" offset="0.37"></stop><stop stop-color="rgba(220, 47, 2, 1)" offset="1"></stop></radialGradient></defs></svg>